<svg width="71" height="26" viewBox="0 0 71 26" fill="none" xmlns="http://www.w3.org/2000/svg">
<path d="M6.28711 18.7294C7.125 18.7294 7.8571 18.4755 8.4834 17.9677C9.1097 17.4598 9.45671 16.8251 9.52441 16.0634H11.7461C11.7038 16.8505 11.4329 17.5995 10.9336 18.3104C10.4342 19.0214 9.76562 19.5884 8.92773 20.0116C8.09831 20.4348 7.2181 20.6464 6.28711 20.6464C4.41667 20.6464 2.92708 20.0243 1.81836 18.7802C0.718099 17.5275 0.167969 15.8179 0.167969 13.6512V13.2577C0.167969 11.9205 0.413411 10.7313 0.904297 9.69031C1.39518 8.64929 2.09766 7.84102 3.01172 7.2655C3.93424 6.68998 5.02181 6.40222 6.27441 6.40222C7.81478 6.40222 9.09277 6.86348 10.1084 7.78601C11.1325 8.70854 11.6784 9.90613 11.7461 11.3788H9.52441C9.45671 10.4901 9.11816 9.76225 8.50879 9.19519C7.90788 8.61967 7.16309 8.33191 6.27441 8.33191C5.08105 8.33191 4.1543 8.76355 3.49414 9.62683C2.84245 10.4816 2.5166 11.7216 2.5166 13.3466V13.7909C2.5166 15.3736 2.84245 16.5923 3.49414 17.4471C4.14583 18.302 5.07682 18.7294 6.28711 18.7294ZM16.7354 8.31921C17.7764 7.04122 19.1305 6.40222 20.7979 6.40222C23.7008 6.40222 25.165 8.03992 25.1904 11.3153V20.3925H22.8418V11.3026C22.8333 10.3124 22.6048 9.58028 22.1562 9.10632C21.7161 8.63236 21.0264 8.39539 20.0869 8.39539C19.3252 8.39539 18.6566 8.59851 18.0811 9.00476C17.5055 9.41101 17.057 9.94421 16.7354 10.6044V20.3925H14.3867V0.892456H16.7354V8.31921ZM37.1875 20.3925C37.0521 20.1216 36.9421 19.6392 36.8574 18.9452C35.7656 20.0793 34.4622 20.6464 32.9473 20.6464C31.5931 20.6464 30.4801 20.2655 29.6084 19.5038C28.7451 18.7336 28.3135 17.7603 28.3135 16.5839C28.3135 15.1535 28.8551 14.0448 29.9385 13.2577C31.0303 12.4621 32.5622 12.0643 34.5342 12.0643H36.8193V10.9852C36.8193 10.1643 36.5739 9.51257 36.083 9.03015C35.5921 8.53927 34.8685 8.29382 33.9121 8.29382C33.0742 8.29382 32.3717 8.50541 31.8047 8.92859C31.2376 9.35177 30.9541 9.86381 30.9541 10.4647H28.5928C28.5928 9.77917 28.834 9.11902 29.3164 8.48425C29.8073 7.84102 30.4674 7.33321 31.2969 6.96082C32.1348 6.58842 33.0531 6.40222 34.0518 6.40222C35.6344 6.40222 36.8743 6.80001 37.7715 7.59558C38.6686 8.38269 39.1341 9.47026 39.168 10.8583V17.1805C39.168 18.4416 39.3288 19.4445 39.6504 20.1893V20.3925H37.1875ZM33.29 18.6024C34.0264 18.6024 34.7246 18.412 35.3848 18.0311C36.0449 17.6503 36.5231 17.1552 36.8193 16.5458V13.7274H34.9785C32.1009 13.7274 30.6621 14.5695 30.6621 16.2538C30.6621 16.9901 30.9076 17.5656 31.3984 17.9803C31.8893 18.3951 32.5199 18.6024 33.29 18.6024ZM46.0361 3.32996V6.65613H48.6006V8.47156H46.0361V16.9901C46.0361 17.5402 46.1504 17.955 46.3789 18.2343C46.6074 18.5051 46.9967 18.6405 47.5469 18.6405C47.8177 18.6405 48.1901 18.5897 48.6641 18.4882V20.3925C48.0462 20.5617 47.4453 20.6464 46.8613 20.6464C45.8118 20.6464 45.0205 20.329 44.4873 19.6942C43.9541 19.0594 43.6875 18.1581 43.6875 16.9901V8.47156H41.1865V6.65613H43.6875V3.32996H46.0361ZM54.542 3.32996V6.65613H57.1064V8.47156H54.542V16.9901C54.542 17.5402 54.6562 17.955 54.8848 18.2343C55.1133 18.5051 55.5026 18.6405 56.0527 18.6405C56.3236 18.6405 56.696 18.5897 57.1699 18.4882V20.3925C56.5521 20.5617 55.9512 20.6464 55.3672 20.6464C54.3177 20.6464 53.5264 20.329 52.9932 19.6942C52.46 19.0594 52.1934 18.1581 52.1934 16.9901V8.47156H49.6924V6.65613H52.1934V3.32996H54.542ZM64.3555 16.952L67.5547 6.65613H70.0684L64.5459 22.5126C63.6911 24.7977 62.3327 25.9403 60.4707 25.9403L60.0264 25.9022L59.1504 25.7372V23.8329L59.7852 23.8837C60.5807 23.8837 61.1986 23.7229 61.6387 23.4012C62.0872 23.0796 62.4554 22.4914 62.7432 21.6366L63.2637 20.2401L58.3633 6.65613H60.9277L64.3555 16.952Z" fill="white"/>
</svg>
