<svg width="112" height="20" viewBox="0 0 112 20" fill="none" xmlns="http://www.w3.org/2000/svg">
<path d="M12 14.0281L18.18 17.0579L16.54 11.3476L22 7.50558L14.81 7.0101L12 1.62476L9.19 7.0101L2 7.50558L7.46 11.3476L5.82 17.0579L12 14.0281Z" fill="#FBA229"/>
<path d="M34 14.0281L40.18 17.0579L38.54 11.3476L44 7.50558L36.81 7.0101L34 1.62476L31.19 7.0101L24 7.50558L29.46 11.3476L27.82 17.0579L34 14.0281Z" fill="#FBA229"/>
<path d="M56 14.0281L62.18 17.0579L60.54 11.3476L66 7.50558L58.81 7.0101L56 1.62476L53.19 7.0101L46 7.50558L51.46 11.3476L49.82 17.0579L56 14.0281Z" fill="#FBA229"/>
<path d="M78 14.0281L84.18 17.0579L82.54 11.3476L88 7.50558L80.81 7.0101L78 1.62476L75.19 7.0101L68 7.50558L73.46 11.3476L71.82 17.0579L78 14.0281Z" fill="#FBA229"/>
<path d="M100 14.0281L106.18 17.0579L104.54 11.3476L110 7.50558L102.81 7.0101L100 1.62476L97.19 7.0101L90 7.50558L95.46 11.3476L93.82 17.0579L100 14.0281Z" fill="#FBA229"/>
</svg>
